<?xml version="1.0" encoding="utf-8"?>
<!-- Generator: Adobe Illustrator 22.0.1, SVG Export Plug-In . SVG Version: 6.00 Build 0)  -->
<svg version="1.1" id="Layer_1" xmlns="http://www.w3.org/2000/svg" xmlns:xlink="http://www.w3.org/1999/xlink" x="0px" y="0px"
	 viewBox="0 0 552 192.6" style="enable-background:new 0 0 552 192.6;" xml:space="preserve">
<style type="text/css">
	.st0{fill:#007AC2;}
	.st1{fill:#FFFFFF;}
</style>
<rect y="0" class="st0" width="191.9" height="191.9"/>
<path class="st1" d="M133.5,179.2c-0.5-0.7-0.8-1.3-0.8-2.1c0-1.6,1.3-2.8,3.2-2.8c2.9,0,4.5,3.2,8.4,3.2c4.4,0,6.5-3.2,10.5-3.2
	c2,0,4.8,1.2,4.8,3.7c0,0.4-0.1,0.8-0.4,1.1c4.5,0,7.7-3.9,7.7-10.2c0-8.5-0.8-17.9-1.7-27.4c2.4-0.5,4.7-2.9,4.7-6
	c0-1.1-0.4-2.3-1.1-3.3c-0.7,0.9-1.9,1.7-3.9,2.3c-2.8,0.8-6.2,1.2-8.8,1.2c-5.7,0-7.6-0.4-10.2-1.2c-0.1-3.6-2.4-6.5-4.5-8.5
	c3.3,1.3,4.8,2,10.1,2c17,0,27.5-11.4,27.5-24.4c0-9.4-6-13.8-11.4-17l-5,3.6c6.1,2.8,10.1,6.9,10.1,12.5c0,6.1-4.9,10.5-10.6,10.5
	c-6.1,0-10.9-4.4-10.9-10.4c0-4.5,2.1-7.8,6.1-11c4-3.2,10.1-7,13.4-10.6c1.7-1.9,3.2-4.8,3.1-7c2.3-1.1,4-3.3,4-6.2
	c0-3.9-3.7-6.8-7.7-6.8c-2.4,0-5,1.5-6.4,3.1c2.4,0.9,4.7,4.1,4.7,7.4c0,2.8-1.7,5.2-3.7,7.2c-3.1,3.1-7,5.3-11.4,8.9
	c-5.3,4.4-8.5,9.6-8.5,15.4c0,8.1,6.2,15.7,16.1,15.7c3.2,0,5.7-0.7,7.6-1.9c-3.2,3.7-9.2,5.6-15.4,5.6c-5.5,0-9.2-0.8-13.2-3.7
	c-3.6-2.7-6.4-8.9-6.2-13.6c-2.9,1.7-6.4,3.3-9.3,4.7c-4.1,2-5.4,4.1-5.4,7.7c0,4.8,3.3,8.5,4.8,11.3c2,3.6,2.7,6.8,2.9,10.1
	c0.8,8.1,5.4,11.8,13.7,11.8c3.7,0,8.6-0.3,10.6-0.5c0.8,3.7,1.7,8.1,1.7,11.4c0,2-0.5,2.7-1.7,2.9c-1.1,0.3-3.9,0.5-5.6,0.3
	c-0.9-0.1-1.7-0.8-2.3-2.8c-0.7-2.8-2.7-5.6-6.6-5.6c-3.6,0-6.8,2.7-6.2,6.6c-1.7,1.1-2.5,2.8-2.5,4.4c0,1.6,0.5,2.9,1.2,3.7
	c-0.4,0.9-0.5,1.5-0.5,2.4C128.1,176.8,131,179.2,133.5,179.2 M8.6,180l8.1-6.2l10-42.8l3.6-2.5l8-34.3l-1.7-8
	c-2-0.4-3.7-0.9-5.2-1.7L8.6,180z M74.2,170c-0.8-0.9-2.1-1.7-3.9-1.7c-2.1,0-3.2,0.9-3.7,1.6c-0.3-1.6,1.1-3.6,3.6-3.6
	C72.9,166.3,74.2,168.1,74.2,170 M63.7,175.8c-0.4-0.8-0.5-1.6-0.5-2.4c0-0.8,0.1-1.5,0.4-2.1c-0.7-1.2-1.1-2.5-1.1-4
	c0-2,0.9-3.9,2.3-5l-8.2-35.7c-1.3-0.7-2.7-1.5-3.7-2.4c-1.9-1.6-2.9-2.8-4.7-4.8c-0.5-0.5-0.9-0.8-1.5-0.8c-0.8,0-1.3,0.5-1.1,1.6
	l1.7,8.2l3.6,2.5l10,42.8L63.7,175.8z M75,164.3c-0.5-1.2-2.3-2.4-4.4-2.4c-1.2,0-2,0.3-2.5,0.5c0.1-1.1,1.2-2.3,3.3-2.3
	C74,160.2,75.3,162.2,75,164.3 M51.8,112.9c-0.8-1.6-2.5-2.5-4.5-2.5c-0.8,0-1.5,0.1-2,0.3c0.3-1.1,1.5-2,3.2-2
	C50.7,108.6,52.2,110.3,51.8,112.9 M70.5,179.2c-0.5-0.7-0.8-1.3-0.8-2.1c0-1.6,1.3-2.8,3.2-2.8c2.9,0,4.5,3.2,8.4,3.2
	c4.4,0,6.5-3.2,10.5-3.2c2,0,4.8,1.2,4.8,3.7c0,0.4-0.1,0.8-0.4,1.1c4.5,0,7.7-3.9,7.7-10.2c0-8.9-0.3-12.5-0.4-17.4
	c3.5-0.1,6.8-1.9,6.2-7.3c-0.9,0.8-2,1.2-3.2,1.2c-1.6,0-2.8-1.2-2.8-2.9c0-0.8,0-1.7,0.1-2.7l15.5-0.4c-1.5-0.8-2.5-2.4-2.5-4.3
	c0-1.3,0.5-2.3,1.6-2.8c-1.5-3.1-2.7-5.4-4.1-7.7c-0.8-1.2-1.7-2.4-3.6-2.4c-4.1-0.1-12.5,1.1-16.7,2.5c-3.2,1.1-6.2,3.5-6.2,8.9
	c0,5.1,1.7,14,1.6,27.9c0,2-0.5,2.7-1.7,2.9c-1.1,0.3-3.9,0.5-5.6,0.3c-0.9-0.1-1.7-0.8-2.3-2.8c-0.7-2.8-2.7-5.6-6.6-5.6
	c-3.6,0-6.8,2.7-6.2,6.6c-1.7,1.1-2.5,2.8-2.5,4.4c0,1.6,0.5,2.9,1.2,3.7c-0.4,0.9-0.5,1.5-0.5,2.4C65.1,176.8,68,179.2,70.5,179.2
	 M55.8,109.3c-0.1-2.7-2.1-4.8-4.7-5.3c0.4-0.3,1.1-0.7,2.1-0.7c1.9,0,3.3,1.6,3.3,3.3C56.6,107.9,56.2,108.6,55.8,109.3
	 M63.3,135.2c2,0,4.1-1.1,6.1-3.1c3.6-3.5,8.6-8.6,11.7-10.6c2.7-1.7,4.4-2.4,6.1-2.4c1.1,0,1.9,0.3,2.7,1.1l4.5-3.5
	c-5.2-3.9-7.6-8.9-7.7-15.1c-7.2,3.9-12.4,9.2-18.3,14.2c-1.1,0.8-1.6,1.2-2.5,1.2c-0.9,0-1.7-0.9-3.3-2.5c-1.3-1.3-1.6-2.1-1.6-3.1
	c0-1.6,0.5-2.1,0.5-4.3c0-4.3-3.3-6.6-6.5-6.6c-2.7,0-4.7,1.5-5.3,3.3c-3.6,0.3-5.8,2.9-5.8,5.7c0,0.7,0.1,1.2,0.3,1.6
	c-1.3,0.8-2.7,2.4-2.7,4.5c0,2.3,1.2,4.4,3.2,5c-0.3-0.4-0.4-0.9-0.4-1.6c0-1.2,1.1-2.3,2.5-2.3c1.2,0,2,0.4,2.9,1.5
	c1.2,1.6,2.4,3.1,4.4,4.8c1.9,1.6,4,2.7,6,3.9c1.2,0.8,2.1,1.9,2.1,3.5c0,1.1-0.8,2.3-2.4,2.7C60.4,134.5,61.8,135.2,63.3,135.2
	 M42.8,106.6c0.9-2.3,3.1-3.9,5.6-4.4c0.5-0.8,1.2-1.5,1.9-2l-4.5-18.9c-0.5-1.3-0.9-2.7-0.9-4.5c0-2,0.4-4,0.4-5
	c0-0.9-0.5-1.2-1.1-1.2c-0.4,0-0.7,0-0.8,0.1v0.5c0,3.1-1.9,5.4-4.9,5.4c-3.1,0-5.4-2.5-5.4-5.4c0-2.9,2.4-5.3,5.4-5.3
	c0.5,0,1.2,0,2,0.3c0.9-2.4,3.9-4.5,6.9-4.1c-2.1-2.7-5.3-4.3-8.9-4.3c-7.7,0-13.8,5.6-13.8,13.4c0,7.3,6,13.2,13.4,13.3L42.8,106.6
	z M137.2,170c-0.8-0.9-2.1-1.7-3.9-1.7c-2.1,0-3.2,0.9-3.7,1.6c-0.3-1.6,1.1-3.6,3.6-3.6C135.9,166.3,137.2,168.1,137.2,170
	 M138,164.3c-0.5-1.2-2.3-2.4-4.4-2.4c-1.2,0-2,0.3-2.5,0.5c0.1-1.1,1.2-2.3,3.3-2.3C137,160.2,138.3,162.2,138,164.3 M52.8,70.7
	c0.1-3.7-1.5-5.7-3.7-6.6c0.4-0.1,0.9-0.4,1.7-0.4c1.7,0,3.6,1.5,3.6,3.7C54.4,68.6,54,69.9,52.8,70.7 M123.4,139.4h1.3
	c-0.1-4.3-1.2-7.2-2.9-10.2c-0.9-1.7-2.1-3.6-3.1-4.8c-0.5-0.8-1.2-1.1-2-1.1c-0.5,0-0.9,0.4-0.5,1.1c1.1,1.7,2.5,4.4,4.4,8.5
	c-1.6,0.3-2,1.1-2,2.4C118.6,137.4,120.6,139.4,123.4,139.4 M82.5,101.8l4.3-2.3c1.5-8.9,6.8-15.1,16.1-17.4
	c-4.9,0.3-9.2,0.4-15.1,0.7c-6.4,0.3-16.9,1.1-24.2,1.6c-1.5,0.1-2.4-0.4-2.8-1.6c-0.4-1.3-1.2-3.9-1.3-5.3c-0.1-1.2,0.1-2,1.2-2.8
	c2.1-1.5,4.3-3.2,4.3-6.8c0-3.9-3.3-6.4-6.4-6.4c-1.1,0-1.9,0.1-2.5,0.4c-0.8-0.5-1.6-0.9-3.2-0.9c-2.3,0-4.3,1.5-4.8,2.7
	c-3.9-0.3-6.9,2.5-6.6,6.2c0.5-0.5,1.6-1.1,2.8-1.1c1.5,0,2.8,1.1,2.8,2.7c0,1.5-0.3,3.3-0.3,5.3c0,6.1,4.9,9.3,4.9,12.5
	c0,1.6-1.2,2.9-2.8,2.9c0.9,3.3,4,5,8.1,5c2.7,0,5.1-0.3,8.9-0.3C76.8,97,81.5,98.2,82.5,101.8 M58,70.2c0.5-1.2,0.7-2.3,0.7-3.1
	c0-1.7-0.8-3.3-1.6-4c2,0,3.7,1.5,3.7,3.5C60.8,68.5,59.6,69.7,58,70.2 M102.5,118.2c-5.3-2.7-7.8-8.4-7.8-13.4
	c0-7.3,4.5-12.5,12.1-15.3c4.7-1.7,8.4-2.8,13-4.4c9-3.2,12-7.4,12-15.5c0-4.7-1.7-8.6-4.5-10.9c0.9,1.1,1.2,2.4,1.2,3.6
	c0,2.3-1.2,3.3-2.9,3.3c-1.1,0-2.1-0.7-2.3-1.7c0.5,0.4,0.9,0.5,1.5,0.5c1.5,0,2.3-1.1,2.3-2.5c0-2.3-2.1-3.5-4.3-3.7
	c-1.9-0.3-3.9-0.3-6.1-0.3c-2.3,0-4.4,0.1-7.2,0.3c1.7,2.4,7.4,1.7,9.2,2.9c-1.5-0.1-2.9-0.1-4.4,0.3c0,0.9-0.4,2-1.3,2
	c-1.7,0-2.5-1.9-3.7-5.2l-6.8,0.5c-1.1,0.1-1.5,0.5-1.3,1.3l0.7,6.6c0,0.3,0.3,0.4,0.5,0.4c0.3,0,0.5-0.1,0.7-0.5
	c0.3-0.5,1.1-1.7,3.1-1.7c2.9,0,5.2,2.7,5.3,5.7c-1.1-1.5-3.5-2.8-7.4-2.8c-3.1,0-5.6,0.9-9.6,0.9c-4.3,0-6.6-1.6-6.6-3.6
	c0-0.9,0.1-1.5,0.7-2.1c-1.7,0.8-3.1,2.3-3.1,4.6c0,2.9,2.1,6,8.4,6c5.7,0,8.4-3.6,13.6-3.6c2.4,0,3.6,1.2,3.6,2.5
	c0,1.2-1.1,2.3-2.9,2.3c-2.3,0-3.9-1.2-4.7-2.4c-0.1-0.3-0.3-0.4-0.5-0.4c-0.4,0-0.5,0.3-0.5,0.5l0.1,6.4c0,0.8,0.4,1.2,1.3,1.1
	c4-0.4,8.1-0.9,12-1.2c7.2-0.7,12.1-5.4,12.1-10.8c0-0.8,0-1.5-0.1-2.3c0.7,1.1,0.9,2.1,0.9,3.5c0,4.9-2.7,8.6-11.2,10.9
	c-4.5,1.2-7.8,1.7-11.7,2.7c-10.2,2.4-16.9,10.2-16.9,19C88.7,109.8,94.4,117.1,102.5,118.2 M107.9,119.1c-2.3-1.9-5.2-4.9-5.2-10.4
	c0-5.7,2.4-10,9.8-13.2c4.8-2,7.3-2.9,11.8-4.7c9.6-3.6,11.6-10.6,11.6-17.5c0-6.6-2.4-10.5-5.3-13c1.7,2.1,2.8,5.7,2.8,9.4
	c0,8.8-3.3,13.7-12.8,17c-3.9,1.2-8,2.4-12.2,4c-7.7,2.9-11.7,7.2-11.7,14.3C96.7,112.6,102.4,118.2,107.9,119.1 M112.9,120.2
	c-1.5-1.5-3.1-4.1-3.1-7.6c0-4.4,2.9-8.1,8.1-10.8c4.5-2.1,7.2-3.2,11.2-5C137.5,92.7,140,85.6,140,78c0-7.3-2.4-11-4.4-13.4
	c1.5,2.8,1.9,6.1,1.9,8.9c0,8.1-2.4,15.1-11.8,18.9c-4.8,2-7.8,2.7-12,4.5c-6.5,3.1-9,6.6-9,12C104.7,113.9,107.9,118.7,112.9,120.2
	 M118.1,121.9c-0.7-1.2-1.3-2.7-1.3-5.3c0-3.5,2-6.4,6.2-8.2c2.8-1.3,4.9-2.5,8.6-4.4c8.8-4.5,11.8-13,11.8-21.8
	c0-4.4-1.2-7.8-2.7-10.8c0.4,2.4,0.8,4.4,0.8,6.8c0,9.2-3.2,15.9-11.6,20.1c-5.3,2.7-8,3.7-11.2,5.3c-4.5,2.4-7,5.4-7,9.2
	C111.8,117.4,114.2,120.8,118.1,121.9 M129.3,57.1l4.1-7.3h-6.1c0,1.3-1.2,2.8-2.7,2.8c-1.6,0-2.7-1.1-2.7-2.8h-5.4
	c0,1.6-1.2,2.8-2.7,2.8c-1.5,0-2.7-1.2-2.7-2.8h-6.1l3.6,7c2.8-0.3,5.4-0.4,8.1-0.4C121.7,56.4,125.9,56.7,129.3,57.1 M155.6,83.2
	l4.9-3.6c-1.9-2-3.9-4.4-3.9-8.2c0-2.9,2-6.1,4.5-7.4c-1.3-1.6-3.5-3.1-6.5-3.1c-4,0-7.3,2.9-7.3,6.8c0,2.7,1.7,4.9,3.7,6
	C151,77.4,152.8,80.7,155.6,83.2"/>
<path class="st0" d="M230,162.8h8.3l5.5-6.2H237l-2.7,3h-0.2l-2.7-3h-6.9L230,162.8 M234.2,192.4c3.3,0,6-0.8,7.7-1.7v-6.9
	c-1.6,0.8-3.4,1.6-6.3,1.6c-2.9,0-7-2.2-7-7.1c0-5,3.8-7.3,7.5-7.3c2.5,0,4.2,0.6,5.8,1.3v-6.8c-1.6-0.7-3.6-1.3-6.9-1.3
	c-8.1,0-15,5.3-15,14.1C220,187,226.1,192.4,234.2,192.4 M253.4,191.9h10.8l8.2-27.5h-8.9l-4.7,20.6h-0.2l-4.7-20.6h-8.9
	L253.4,191.9z M289.1,192.6c6.5,0,11.8-3.1,11.8-10.8v-17.3h-7.9v16.6c0,3.1-1.7,4.5-3.9,4.5c-2.2,0-3.9-1.4-3.9-4.5v-16.6h-7.9
	v17.3C277.3,189.5,282.7,192.6,289.1,192.6 M312.8,191.9h7.9v-21h6.8v-6.4h-21.6v6.4h6.9V191.9z M346.9,191.9h10.8l8.2-27.5h-8.9
	l-4.7,20.6h-0.2l-4.7-20.6h-8.9L346.9,191.9z M381.2,191.9h7.9V183h4c6.4,0,10.4-4.1,10.4-9.1c0-5-4-9.4-10.4-9.4h-12V191.9z
	 M389.1,177.1v-6.8h3.1c1.7,0,3.3,1.5,3.3,3.4c0,2-1.6,3.4-3.3,3.4H389.1z M409.4,191.9h7.9v-9.7h2l4.8,9.7h8.9l-5-8.5
	c-0.5-0.9-1.2-1.7-1.5-1.9l0-0.2c2.4-1.1,5.9-3.1,5.9-7.8c0-4.9-3.9-9-10.3-9h-12.6V191.9z M417.3,177.1v-6.8h3.2
	c2.1,0,3.4,1.7,3.4,3.4c0,1.7-1.3,3.4-3.4,3.4H417.3z M454.5,191.9h8.1l-8.2-27.5h-11.6l-8.2,27.5h8.1l1.5-5.7h8.8L454.5,191.9z
	 M445.7,180.6l2.7-10.1h0.4l2.7,10.1H445.7z M464.9,191.9h21.6v-6.4h-11.9l11.7-15.3v-5.8h-21.1v6.4h11.2l-11.5,15V191.9z
	 M492.5,191.9h18.9v-6.3h-11v-4.4h10.7v-6.1h-10.7v-4.4h11v-6.3h-18.9V191.9z"/>
<path class="st0" d="M225.9,150.8h7.9v-21h6.8v-6.4h-21.6v6.4h6.9V150.8 M245.9,150.8h18.9v-6.3h-11v-4.4h10.7V134h-10.7v-4.4h11
	v-6.3h-18.9V150.8z M284.7,151.3c3.3,0,6-0.8,7.7-1.7v-6.9c-1.6,0.8-3.4,1.6-6.3,1.6c-2.9,0-7-2.2-7-7.1c0-5,3.8-7.3,7.5-7.3
	c2.5,0,4.2,0.6,5.8,1.3v-6.8c-1.6-0.7-3.6-1.3-6.9-1.3c-8.1,0-15,5.3-15,14.1C270.4,145.8,276.6,151.3,284.7,151.3 M298.3,123.4
	v27.5h7.9v-10.7h8.1v10.7h7.9v-27.5h-7.9v10.5h-8.1v-10.5H298.3z M330.3,150.8h7.9v-16.5h0.1l8.3,16.5h9.7v-27.5h-7.9v16.4h-0.1
	l-8.2-16.4h-9.7V150.8z M376.6,151.5c8.2,0,13.7-5.2,13.7-14.4s-5.5-14.4-13.7-14.4c-8.2,0-13.8,5.2-13.8,14.4
	S368.4,151.5,376.6,151.5 M376.6,144.4c-3.5,0-5.3-2.8-5.3-7.3c0-4.5,1.8-7.3,5.3-7.3c3.6,0,5.2,2.8,5.2,7.3
	C381.8,141.6,380.1,144.4,376.6,144.4 M396.7,150.8h17.7v-6.5h-9.8v-21h-7.9V150.8z M431,151.5c8.2,0,13.7-5.2,13.7-14.4
	s-5.5-14.4-13.7-14.4c-8.2,0-13.8,5.2-13.8,14.4S422.9,151.5,431,151.5 M431,144.4c-3.5,0-5.3-2.8-5.3-7.3c0-4.5,1.8-7.3,5.3-7.3
	c3.6,0,5.2,2.8,5.2,7.3C436.2,141.6,434.6,144.4,431,144.4 M464.2,151.5c4.9,0,8.3-1.5,9.9-2.3V137h-7.7v7.4
	c-0.6,0.1-1.2,0.2-1.8,0.2c-3.1,0-6.5-2.3-6.5-7.5c0-5.6,3-8.3,8.1-8.3c2.8,0,5.3,1,6.7,1.8v-6.5c-1.6-0.7-4.3-1.7-7.9-1.7
	c-9.3,0-15.6,5.8-15.6,14.7C449.6,146,456.5,151.5,464.2,151.5 M481,150.8h7.9v-27.5H481V150.8z M496.8,121.7h6.7l5.7-6.2H500
	L496.8,121.7z M497,150.8h7.9v-27.5H497V150.8z"/>
<path class="st0" d="M221.6,109.7h7.9V82.2h-7.9V109.7z M237.6,109.7h7.9V93.2h0.1l8.3,16.5h9.6V82.2h-7.9v16.4h-0.1l-8.2-16.4h-9.7
	V109.7z M271.7,82.2v27.5h7.9V99.1h10.7V93h-10.7v-4.5h10.9v-6.3H271.7z M309,110.3c8.2,0,13.7-5.2,13.7-14.4
	c0-9.2-5.5-14.4-13.7-14.4c-8.2,0-13.8,5.2-13.8,14.4C295.3,105.1,300.9,110.3,309,110.3 M309,103.3c-3.5,0-5.3-2.8-5.3-7.3
	c0-4.5,1.8-7.3,5.3-7.3c3.6,0,5.2,2.8,5.2,7.3C314.3,100.5,312.6,103.3,309,103.3 M329.2,109.7h7.9V100h2l4.8,9.6h8.9l-5-8.5
	c-0.5-0.9-1.2-1.7-1.5-1.9l0-0.2c2.4-1.1,5.9-3.2,5.9-7.8c0-4.9-3.9-9-10.3-9h-12.6V109.7z M337.1,94.9v-6.8h3.2
	c2.1,0,3.4,1.7,3.4,3.4c0,1.7-1.3,3.4-3.4,3.4H337.1z M358.5,109.7h7.6V92.9h0.1l7.1,11.7h0.6l6.8-11.7h0.1v16.8h7.7V82.2h-9.2
	l-5.7,9.7h-0.1l-5.7-9.7h-9.4V109.7z M412.7,109.7h8.1l-8.2-27.5h-11.6l-8.2,27.5h8.1l1.5-5.7h8.8L412.7,109.7z M403.9,98.4
	l2.7-10.1h0.4l2.7,10.1H403.9z M433.8,80.6h8.3l5.5-6.2h-6.9l-2.7,3h-0.2l-2.7-3h-6.9L433.8,80.6z M438.1,110.1c3.3,0,6-0.8,7.7-1.7
	v-6.9c-1.6,0.8-3.4,1.6-6.3,1.6s-7-2.2-7-7.1c0-5,3.8-7.3,7.5-7.3c2.5,0,4.2,0.6,5.8,1.3v-6.8c-1.6-0.7-3.6-1.3-6.9-1.3
	c-8.1,0-15,5.3-15,14.1C423.8,104.7,430,110.1,438.1,110.1 M451.7,109.7h7.9V93.2h0.1l8.3,16.5h9.7V82.2h-7.9v16.4h-0.1l-8.2-16.4
	h-9.7V109.7z M485.5,80.6h6.7l5.7-6.2h-9.2L485.5,80.6z M485.8,109.7h7.9V82.2h-7.9V109.7z M514.4,110.1c3.3,0,6-0.8,7.7-1.7v-6.9
	c-1.6,0.8-3.4,1.6-6.3,1.6c-2.9,0-7-2.2-7-7.1c0-5,3.8-7.3,7.5-7.3c2.5,0,4.2,0.6,5.8,1.3v-6.8c-1.6-0.7-3.6-1.3-6.9-1.3
	c-8.1,0-15,5.3-15,14.1C500.2,104.7,506.3,110.1,514.4,110.1 M528.1,82.2v27.5h7.9V99h8.1v10.7h7.9V82.2h-7.9v10.5H536V82.2H528.1z"
	/>
<path class="st0" d="M221.6,41.1v27.5h7.9V58h10.7v-6.1h-10.7v-4.5h10.9v-6.3H221.6 M262,68.6h8.1l-8.2-27.5h-11.6l-8.2,27.5h8.1
	l1.5-5.7h8.8L262,68.6z M253.2,57.3l2.7-10.1h0.4l2.7,10.1H253.2z M299.7,68.6l-9.3-14.2l9.2-13.3h-9.6l-7.7,12.6V41.1h-7.9v27.5
	h7.9V55.4l8,13.2H299.7z M315.3,69.2c6.5,0,11.8-3.1,11.8-10.8V41.1h-7.9v16.6c0,3.1-1.7,4.5-3.9,4.5c-2.2,0-3.9-1.4-3.9-4.5V41.1
	h-7.9v17.3C303.4,66.1,308.8,69.2,315.3,69.2 M335,68.6h17.7v-6.5h-9.8v-21H335V68.6z M359,68.6h7.9v-21h6.8v-6.4h-21.6v6.4h6.9
	V68.6z M393.8,68.6h8.1l-8.2-27.5h-11.6l-8.2,27.5h8.1l1.5-5.7h8.8L393.8,68.6z M385,57.3l2.7-10.1h0.4l2.7,10.1H385z"/>
</svg>
