<?xml version="1.0" encoding="UTF-8" standalone="no"?>
<!-- Created with Inkscape (http://www.inkscape.org/) -->

<svg
   width="70.949104mm"
   height="52.021263mm"
   viewBox="0 0 70.949104 52.021263"
   version="1.1"
   id="svg5"
   xmlns="http://www.w3.org/2000/svg">
  <defs
     id="defs2">
	
	
	
	

	
	
	
	

	
	
	
	
</defs>
  <g
     id="layer1"
     transform="translate(-285.94965,-106.02659)">
    <g
       id="g6074"
       transform="translate(183.15403,-1.6636223)">
      <g
         id="g6475">
        <path
           id="path5703"
           style="fill:#ffffff;stroke-width:0.115566"
           class="st0"
           d="m 112.29478,107.69023 c -0.0341,-2.7e-4 -0.0685,0.003 -0.10232,0.0114 -0.13729,0.0307 -0.2491,0.12837 -0.29972,0.25838 0,0 -5.98943,15.25136 -9.09712,23.16034 7.52287,8.26406 19.43515,5.35108 30.23743,5.2648 -0.10773,-0.91962 -0.137,-1.8479 -0.0863,-2.77296 -0.17662,0.004 -0.35311,0.009 -0.5302,0.0145 0.18348,-0.0918 0.36503,-0.18965 0.54622,-0.28784 2.9e-4,-0.004 2.3e-4,-0.008 5.2e-4,-0.0119 0.13469,-2.08271 0.68415,-4.13556 1.58026,-6.01979 0.94422,-1.97409 2.28575,-3.75491 3.91398,-5.21622 1.0233,-0.90543 2.15449,-1.69069 3.36465,-2.32492 -0.17107,-1.83587 -0.95737,-3.35303 -2.27841,-4.28708 4.51792,-0.14261 8.89312,0.0723 12.73927,1.64331 -0.0892,0.31566 -0.14093,0.63319 -0.16588,0.95033 2.27429,0.3634 4.47099,1.19921 6.40529,2.45256 0.31309,-0.79731 0.52884,-1.34638 0.80305,-2.04483 -11.23159,-12.3385 -32.25209,0.2437 -44.74765,-8.87698 -0.86143,-0.63019 -2.00246,-1.80402 -2.00246,-1.80402 -0.0785,-0.0705 -0.17842,-0.10822 -0.28061,-0.10904 z m 4.66845,6.64042 c 3.84615,1.57101 8.22531,1.78776 12.74496,1.64331 -3.76491,1.88522 -7.08014,5.12087 -8.61498,9.02839 -1.53309,3.90394 -0.88343,7.45039 1.48208,9.11882 -4.51792,0.14446 -8.89467,-0.0705 -12.74082,-1.64331 0.60672,-2.13971 -0.32157,-4.36421 -1.98283,-6.02547 1.32184,-3.36401 2.64383,-6.72621 3.96565,-10.09034 1.92487,0.9859 4.1456,-0.0831 5.14594,-2.0314 z m 17.35295,4.55941 c -0.14804,0.38288 -0.2997,0.76538 -0.44959,1.14825 0.43152,0.009 0.83225,0.0471 1.19166,0.11576 0.61031,0.11741 1.12862,0.55242 1.12862,0.55242 0.0722,0.0362 0.10481,0.10501 0.0868,0.1881 -0.018,0.0831 -0.0829,0.16748 -0.17673,0.23254 -0.39731,0.26904 -0.79801,0.54182 -1.19889,0.81442 -0.12643,0.0885 -0.28181,0.11211 -0.38293,0.0687 0,0 -0.40668,-0.29622 -0.82734,-0.36845 -0.41708,-0.0758 -0.88471,-0.0921 -1.39216,-0.0651 -0.66266,0.0397 -1.19715,0.17353 -1.5999,0.40824 -0.4009,0.23298 -0.67186,0.52353 -0.80719,0.87023 -0.12285,0.31422 -0.10462,0.54519 0.0579,0.69867 0.16075,0.15173 0.49879,0.24031 1.01699,0.25476 0.48572,0.007 0.97315,0.0144 1.46244,0.0217 1.08528,0.0163 1.82536,0.22749 2.22984,0.61753 0.40806,0.39003 0.45135,0.99121 0.13539,1.79472 -0.18777,0.47856 -0.46364,0.89921 -0.82837,1.26763 -0.36657,0.37201 -0.7967,0.6865 -1.28416,0.94826 -0.49301,0.2673 -1.03475,0.47148 -1.63246,0.62322 -0.26003,0.0668 -0.52552,0.1153 -0.79271,0.15864 -0.17878,0.45325 -0.35741,0.90459 -0.53434,1.35599 -0.63747,0.0379 -1.27478,0.0777 -1.91409,0.11369 0.17335,-0.44239 0.34673,-0.88467 0.52193,-1.32705 -0.53091,-0.007 -1.02027,-0.0523 -1.46451,-0.13901 -0.67895,-0.13359 -1.37976,-0.79478 -1.37976,-0.79478 -0.0668,-0.0379 -0.0937,-0.10996 -0.0739,-0.1912 0.0217,-0.0777 0.0883,-0.16413 0.17674,-0.22376 0.42435,-0.28175 0.84894,-0.56704 1.2733,-0.85422 0.1336,-0.0867 0.29967,-0.11204 0.39894,-0.0543 0,0 0.51137,0.49103 1.00253,0.58498 0.49474,0.0921 1.01118,0.1229 1.54926,0.094 0.67895,-0.0415 1.28172,-0.17534 1.8035,-0.40462 0.52548,-0.22755 0.87256,-0.55775 1.04232,-0.98754 0.11915,-0.31064 0.10831,-0.55091 -0.0398,-0.71882 -0.14804,-0.16977 -0.47673,-0.25785 -0.97875,-0.27957 -0.55622,-0.005 -1.11242,-0.0144 -1.66864,-0.0217 -0.9859,-0.0199 -1.67568,-0.22048 -2.06757,-0.58705 -0.39546,-0.36843 -0.43142,-0.95676 -0.11731,-1.75855 0.17335,-0.44239 0.43495,-0.8437 0.7798,-1.19941 0.3467,-0.35213 0.75107,-0.66254 1.20975,-0.91725 0.4625,-0.25806 0.96102,-0.46192 1.49551,-0.60823 0.22027,-0.0614 0.44953,-0.10653 0.67696,-0.14987 0.15174,-0.39004 0.3052,-0.77836 0.45682,-1.1684 0.6392,-0.0362 1.27663,-0.0758 1.9141,-0.11369 z" />
        <path
           id="path5709"
           style="fill:#ffffff;stroke-width:0.115566"
           class="st0"
           d="m 160.58434,121.96688 -0.0372,0.0951 c 0.0544,0.0483 0.10908,0.0962 0.16278,0.14521 z m -55.55681,14.5836 -0.97152,2.07998 c 1.97549,1.37962 4.08431,2.30783 6.1898,2.91455 3.32437,0.957 6.64512,1.14308 9.53069,1.14308 2.44491,0 4.92966,-0.14822 7.30963,-0.29094 2.3136,-0.137 4.68085,-0.27923 6.89777,-0.27802 l 0.0346,-0.002 c 0.12816,0 0.26176,-0.002 0.39894,-0.002 0.12884,7e-5 0.25363,0.003 0.38034,0.005 -0.31712,-0.60827 -0.60117,-1.23381 -0.84026,-1.87689 -0.0454,-0.12307 -0.0836,-0.24848 -0.12609,-0.37258 -2.26241,0.007 -4.61606,0.14697 -6.87916,0.28267 -2.37997,0.14261 -4.82113,0.28698 -7.17579,0.28525 -2.78618,0.002 -5.89374,-0.18583 -8.90747,-1.05627 -2.02784,-0.58685 -4.0033,-1.48247 -5.8415,-2.83135 z" />
        <g
           id="g5723"
           transform="matrix(0.51099155,0,0,0.51099155,-26.632436,65.399836)">
          <g
             style="fill:#ffffff"
             id="g5717"
             transform="matrix(2.877531,0,0,2.877531,314.31265,102.3855)">
            <path
               d="m 26.457363,27.262363 -0.709,0.709 c -0.785,0.784 -2.055,0.784 -2.838,0 l -3.522339,-3.520339 c -0.656,-0.658 -0.729,-1.644 -0.281,-2.412 L 16.548,19.482 c -1.669,1.238 -3.728,1.979 -5.965,1.979 -5.54,0 -10.031,-4.491 -10.031,-10.031 0,-5.54 4.491,-10.032 10.031,-10.032 5.541,0 10.031,4.491 10.031,10.032 0,2.579 -0.98,4.923 -2.58,6.7 l 2.490024,2.490024 c 0.768,-0.447 1.754,-0.375 2.41,0.283 l 3.522339,3.520339 c 0.784,0.785 0.784,2.056 0.001,2.839 z M 18.088,11.389 c 0,-4.155 -3.369,-7.523 -7.524,-7.523 -4.155,0 -7.524,3.367 -7.524,7.523 0,4.156 3.368,7.523 7.523,7.523 4.155,0 7.525,-3.368 7.525,-7.523 z"
               id="path5715"
               style="fill:#ffffff" />
          </g>
          <path
             style="color:#000000;fill:#ffffff;stroke-linecap:round;-inkscape-stroke:none"
             d="m 344.71289,117.03516 c -9.98113,5.7e-4 -18.11385,8.13606 -18.11328,18.11718 a 1.984375,1.984375 0 0 0 1.98437,1.98438 1.984375,1.984375 0 0 0 1.98438,-1.98633 c -4.5e-4,-7.83625 6.30828,-14.14604 14.14453,-14.14648 a 1.984375,1.984375 0 0 0 1.98438,-1.98438 1.984375,1.984375 0 0 0 -1.98438,-1.98437 z"
             id="path5721" />
        </g>
      </g>
    </g>
  </g>
</svg>
