<svg xmlns="http://www.w3.org/2000/svg" xmlns:xlink="http://www.w3.org/1999/xlink" width="87.538" height="67.781" viewBox="0 0 87.538 67.781">
  <defs>
    <clipPath id="clip-path">
      <rect id="Rectangle_8" data-name="Rectangle 8" width="87.538" height="67.781"/>
    </clipPath>
    <clipPath id="clip-path-2">
      <rect id="Rectangle_7" data-name="Rectangle 7" width="48.406" height="12.832"/>
    </clipPath>
    <clipPath id="clip-path-8">
      <rect id="Rectangle_13" data-name="Rectangle 13" width="54.441" height="14.611"/>
    </clipPath>
    <clipPath id="clip-path-14">
      <rect id="Rectangle_15" data-name="Rectangle 15" width="57.681" height="19.883"/>
    </clipPath>
  </defs>
  <g id="odl" transform="translate(-228.6 -367.6)">
    <g id="Group_7" data-name="Group 7" transform="translate(228.6 367.6)" clip-path="url(#clip-path)">
      <g id="Group_6" data-name="Group 6" transform="translate(29.793 14.039)">
        <g id="Group_5" data-name="Group 5" clip-path="url(#clip-path-2)">
          <g id="Group_1" data-name="Group 1" clip-path="url(#clip-path-2)">
            <path id="Path_1" data-name="Path 1" d="M275.5,396.18h0a6.4,6.4,0,0,1,6.543-6.48,6.334,6.334,0,0,1,6.48,6.416v.064a6.512,6.512,0,0,1-13.023,0m10.672,0h0a4.262,4.262,0,0,0-4.256-4.447,4.194,4.194,0,0,0-4.193,4.383v.064a4.23,4.23,0,1,0,8.449,0" transform="translate(-275.5 -389.7)" fill="#006da4"/>
          </g>
          <g id="Group_2" data-name="Group 2" clip-path="url(#clip-path-2)">
            <path id="Path_2" data-name="Path 2" d="M299.1,390h4.891c2.922,0,4.7,1.652,4.7,4.129v.064c0,2.8-2.223,4.256-4.955,4.256H301.26v4H299.1V390Zm4.764,6.48c1.652,0,2.668-.953,2.668-2.223v-.064c0-1.461-1.016-2.223-2.668-2.223h-2.541v4.447h2.541Z" transform="translate(-284.108 -389.809)" fill="#006da4"/>
          </g>
          <g id="Group_3" data-name="Group 3" clip-path="url(#clip-path-2)">
            <path id="Path_3" data-name="Path 3" d="M316.8,390h9.211v1.969h-6.988v3.24h6.225v1.969h-6.225v3.3h7.115v1.969H316.8Z" transform="translate(-290.564 -389.809)" fill="#006da4"/>
          </g>
          <g id="Group_4" data-name="Group 4" clip-path="url(#clip-path-2)">
            <path id="Path_4" data-name="Path 4" d="M334.6,390h2.033l6.67,8.639V390h2.16v12.451h-1.842l-6.861-8.83v8.83H334.6Z" transform="translate(-297.057 -389.809)" fill="#006da4"/>
          </g>
        </g>
      </g>
    </g>
    <g id="Group_14" data-name="Group 14" transform="translate(228.6 367.6)" clip-path="url(#clip-path)">
      <g id="Group_13" data-name="Group 13" transform="translate(29.857 29.984)">
        <g id="Group_12" data-name="Group 12" clip-path="url(#clip-path-8)">
          <g id="Group_8" data-name="Group 8" clip-path="url(#clip-path-8)">
            <path id="Path_5" data-name="Path 5" d="M275.6,415h5.59c5.209,0,8.195,2.986,8.195,7.178v.064c0,4.193-3.049,7.305-8.258,7.305H275.6V415Zm5.654,10.926c2.414,0,4-1.334,4-3.684v-.064c0-2.35-1.588-3.685-4-3.685h-1.588v7.369h1.588Z" transform="translate(-275.6 -414.873)" fill="#f37021"/>
          </g>
          <g id="Group_9" data-name="Group 9" clip-path="url(#clip-path-8)">
            <path id="Path_6" data-name="Path 6" d="M302.325,414.8H306.2l6.162,14.611h-4.32l-1.08-2.6h-5.59l-1.016,2.6H296.1Zm3.494,8.894-1.588-4.129-1.652,4.129Z" transform="translate(-283.077 -414.8)" fill="#f37021"/>
          </g>
          <g id="Group_10" data-name="Group 10" clip-path="url(#clip-path-8)">
            <path id="Path_7" data-name="Path 7" d="M323.083,418.494H318.7V415h12.7v3.494h-4.32v10.99h-4Z" transform="translate(-291.321 -414.873)" fill="#f37021"/>
          </g>
          <g id="Group_11" data-name="Group 11" clip-path="url(#clip-path-8)">
            <path id="Path_8" data-name="Path 8" d="M341.926,414.8H345.8l6.162,14.611h-4.32l-1.08-2.6h-5.59l-1.016,2.6H335.7Zm3.494,8.894-1.588-4.129-1.652,4.129Z" transform="translate(-297.521 -414.8)" fill="#f37021"/>
          </g>
        </g>
      </g>
    </g>
    <g id="Group_20" data-name="Group 20" transform="translate(228.6 367.6)" clip-path="url(#clip-path)">
      <g id="Group_19" data-name="Group 19" transform="translate(29.92 48.025)">
        <g id="Group_15" data-name="Group 15" clip-path="url(#clip-path-14)">
          <path id="Path_9" data-name="Path 9" d="M275.7,443.4v19.693h15.818V457.5h-9.275V443.4Z" transform="translate(-275.7 -443.273)" fill="#90b03e"/>
        </g>
        <g id="Group_16" data-name="Group 16" clip-path="url(#clip-path-14)">
          <path id="Path_10" data-name="Path 10" d="M312.1,450.95l1.779,4.764h-3.621Zm-3.176-7.75L300.6,463.083h7.051l1.016-2.668h6.924l1.016,2.668h7.115L315.465,443.2Z" transform="translate(-284.782 -443.2)" fill="#90b03e"/>
        </g>
        <g id="Group_18" data-name="Group 18" clip-path="url(#clip-path-14)">
          <g id="Group_17" data-name="Group 17" clip-path="url(#clip-path-14)">
            <path id="Path_11" data-name="Path 11" d="M337.3,443.4h11.053c2.732,0,4.447.635,5.59,1.779a4.2,4.2,0,0,1,1.207,3.049v.064c0,2.35-1.4,3.748-3.494,4.51,2.541.762,4.193,2.1,4.193,4.764v.063c0,3.176-2.6,5.463-7.56,5.463H337.363V443.4Zm9.275,7.75c1.4,0,2.1-.508,2.1-1.334v-.064q0-1.334-2.1-1.334h-2.859v2.732Zm.445,6.988c1.461,0,2.16-.572,2.16-1.461v-.064c0-.826-.7-1.461-2.16-1.461h-3.3v2.922h3.3Z" transform="translate(-298.169 -443.273)" fill="#90b03e"/>
          </g>
        </g>
      </g>
    </g>
    <g id="Group_21" data-name="Group 21" transform="translate(228.6 367.6)" clip-path="url(#clip-path)">
      <path id="Path_12" data-name="Path 12" d="M250.072,435.381H237.557a8.947,8.947,0,0,1-8.957-8.957,9.262,9.262,0,0,1,1.08-4.32c.508-.953,17.787-32.715,18.1-33.287a6.452,6.452,0,0,0,.762-3.113V375.35a6.771,6.771,0,0,0-2.668-5.336l1.842-2.414a9.779,9.779,0,0,1,3.875,7.75V385.7a9.332,9.332,0,0,1-1.143,4.51c-.318.572-17.6,32.4-18.1,33.351a5.609,5.609,0,0,0-.7,2.859,5.9,5.9,0,0,0,5.908,5.908h12.514v3.049Z" transform="translate(-228.6 -367.6)" fill="#006da4"/>
    </g>
    <g id="Group_22" data-name="Group 22" transform="translate(228.6 367.6)" clip-path="url(#clip-path)">
      <path id="Path_13" data-name="Path 13" d="M278.549,375.25H275.5a9.779,9.779,0,0,1,3.875-7.75l1.842,2.414a6.769,6.769,0,0,0-2.668,5.336" transform="translate(-245.707 -367.564)" fill="#006da4"/>
    </g>
  </g>
</svg>
